<svg width="500" height="500" viewBox="0 0 500 500" fill="none" xmlns="http://www.w3.org/2000/svg">
<path d="M437.281 250C437.281 289.86 424.564 328.68 400.979 360.814C377.394 392.947 344.172 416.718 306.145 428.667C268.119 440.617 227.271 440.123 189.545 427.256C151.819 414.389 119.182 389.821 96.3821 357.126C73.582 324.43 61.8083 285.313 62.7734 245.465C63.7386 205.617 77.3924 167.116 101.749 135.563C126.105 104.01 159.893 81.0507 198.198 70.0254C236.502 59 277.326 60.4836 314.729 74.2602" stroke="#3B1E54" stroke-width="11.437"/>
<path d="M104.178 365.773C143.766 355.029 207.806 350.049 281.568 377.746C318.012 391.43 347.799 395.381 371.519 393.815" stroke="#3B1E54" stroke-width="6"/>
<path d="M152.785 297.151C192.373 286.406 256.414 281.427 330.175 309.123C366.62 322.807 396.407 326.758 420.126 325.192" stroke="#3B1E54" stroke-width="6"/>
<path d="M307.644 346.696C283.885 345.946 254.624 339.114 219.685 321.947C161.041 293.133 106.863 287.336 67.0074 290.097" stroke="#3B1E54" stroke-width="6"/>
<path d="M310.107 346.173C286.393 347.822 256.592 343.974 220.101 330.416C163.471 309.377 112.624 307.527 74.1555 312.714" stroke="#3B1E54" stroke-width="6"/>
<path d="M406.544 351.613C366.68 341.808 304.888 338.321 234.158 364.879C175.185 387.022 133.643 383.68 107.037 372.714" stroke="#3B1E54" stroke-width="6"/>
<path d="M403.136 354.77C369.705 350.319 322.954 352.546 271.444 374.378" stroke="#3B1E54" stroke-width="6"/>
<circle cx="385.815" cy="161.363" r="57.1852" fill="#3B1E54"/>
</svg>
