<svg width="500" height="500" viewBox="0 0 500 500" fill="none" xmlns="http://www.w3.org/2000/svg">
<g clip-path="url(#clip0_7_37)">
<path d="M492.593 250C492.593 301.632 476.119 351.917 445.569 393.541C415.018 435.165 371.984 465.956 322.727 481.435C273.47 496.913 220.559 496.273 171.691 479.606C122.822 462.939 80.5467 431.115 51.013 388.764C21.4793 346.412 6.22832 295.743 7.47854 244.126C8.72875 192.509 26.415 142.637 57.9644 101.765C89.5138 60.8936 133.281 31.1538 182.898 16.8723C232.516 2.59073 285.396 4.51241 333.846 22.3578" stroke="#D4BEE4" stroke-width="14.8148"/>
<path d="M61.1111 399.965C112.391 386.048 195.345 379.598 290.891 415.473C338.099 433.199 376.683 438.317 407.407 436.288" stroke="#D4BEE4" stroke-width="7.77202"/>
<path d="M124.074 311.076C175.354 297.159 258.308 290.709 353.854 326.585C401.062 344.31 439.646 349.428 470.37 347.399" stroke="#D4BEE4" stroke-width="7.77202"/>
<path d="M324.669 375.254C293.893 374.282 255.99 365.432 210.732 343.196C134.768 305.872 64.5892 298.362 12.9629 301.939" stroke="#D4BEE4" stroke-width="7.77202"/>
<path d="M327.858 374.577C297.141 376.712 258.539 371.728 211.271 354.166C137.916 326.913 72.0513 324.517 22.2222 331.235" stroke="#D4BEE4" stroke-width="7.77202"/>
<path d="M452.778 381.623C401.14 368.922 321.099 364.405 229.479 398.807C153.089 427.49 99.2786 423.16 64.8149 408.956" stroke="#D4BEE4" stroke-width="7.77202"/>
<path d="M448.363 385.713C405.059 379.947 344.5 382.832 277.778 411.111" stroke="#D4BEE4" stroke-width="7.77202"/>
<circle cx="425.926" cy="135.185" r="73.1481" fill="#D4BEE4" stroke="#D4BEE4" stroke-width="1.85185"/>
</g>
<defs>
<clipPath id="clip0_7_37">
<rect width="500" height="500" fill="white"/>
</clipPath>
</defs>
</svg>
